<svg xmlns="http://www.w3.org/2000/svg" viewBox="0 0 32 32" fill="none" width="32" height="32">
  <!-- Emerald background with border radius -->
  <rect x="1" y="1" width="30" height="30" rx="6" ry="6" fill="#10b981"/>
  
  <!-- Brain icon in white -->
  <g transform="translate(4, 4)">
    <path d="M12 5a3 3 0 1 0 0 6 3 3 0 0 0 0-6M9 12a3 3 0 1 0-6 0 3 3 0 0 0 6 0M9 12h12a3 3 0 0 1 0 6M21 12a3 3 0 0 0-6 0 3 3 0 0 1 0 6 3 3 0 0 0 6 0M12 17a3 3 0 1 0 0 6 3 3 0 0 0 0-6M9 18h-4a2 2 0 0 0-2 2v2M19 18h4a2 2 0 0 1 2 2v2" 
          stroke="white" stroke-width="2" stroke-linecap="round" stroke-linejoin="round" fill="none"/>
  </g>
</svg>